<svg xmlns="http://www.w3.org/2000/svg" style="background: none;" preserveAspectRatio="xMidYMid" viewBox="-84.5 9.8 669 138.4"><defs><linearGradient id="editing-gradient-gradient" x1="0.45642212862617093" x2="0.5435778713738291" y1="0.0019026509541272274" y2="0.9980973490458728" gradientUnits="objectBoundingBox"><stop offset="0" stop-color="#a00d1e"/><stop offset="1" stop-color="#008eff"/></linearGradient></defs><g><g transform="translate(-86.10003054141998, 144.1999969482422)"><path d="M133.20-83L133.20-83L133.20-83Q133.20 2.20 40.80 2.20L40.80 2.20L40.80 2.20Q26 2.20 1.60-1.40L1.60-1.40L24-119.60L24-119.60Q25.60-127.60 26.60-132.20L26.60-132.20L26.60-132.20Q57-134.40 70.50-134.40L70.50-134.40L70.50-134.40Q84-134.40 96.40-131.60L96.40-131.60L96.40-131.60Q108.80-128.80 117-122.60L117-122.60L117-122.60Q133.20-110.40 133.20-83ZM92-90.40L92-90.40L92-90.40Q92-120.20 70.60-120.20L70.60-120.20L68.60-120.20L68.60-120.20Q67.60-120.20 66.60-120L66.60-120L46-12.60L46-12.60Q46.80-12.20 47.60-12.20L47.60-12.20L49.20-12.20L49.20-12.20Q56.60-12.20 64.30-16.80L64.30-16.80L64.30-16.80Q72-21.40 78-30.80L78-30.80L78-30.80Q92-52.60 92-90.40ZM229.80 4L229.80 4L229.80 4Q204.20 4 201.80-32.40L201.80-32.40L167.40-32.40L167.40-32.40Q163.40-23.20 160.60-15.20L160.60-15.20L155.40 0L127.40 0L190.40-132L233.40-132L241.80-34.80L241.80-34.80Q243.80-13.80 251.80-7.60L251.80-7.60L251.80-7.60Q246 4 229.80 4ZM184.60-72.40L173.60-47L201.20-47L198.80-98.40L198.80-103.80L184.60-72.40ZM284 0L262 0L286-132L329-132L360.20-41.20L376.80-132L399-131.80L374.60 0L328.80 0L300-87.40L284 0ZM445.40 0L401.80 0L427.20-132L471.20-132L445.40 0ZM561-30.80L561-30.80L561-30.80Q564.80-26 564.80-18.20L564.80-18.20L564.80-18.20Q564.80-7.40 556.80-1.70L556.80-1.70L556.80-1.70Q548.80 4 536.20 4L536.20 4L536.20 4Q529 4 518 2.40L518 2.40L518 2.40Q496.40-1 489.80-1L489.80-1L489.80-1Q483.20-1 480.60-0.70L480.60-0.70L480.60-0.70Q478.00-0.40 473.80 0L473.80 0L498.40-132L584.60-132L584.60-132Q584.60-119.80 578.70-113.40L578.70-113.40L578.70-113.40Q572.80-107 561.20-107L561.20-107L561.20-107Q549.60-107 537.80-112.40L537.80-112.40L531.60-77.40L567.20-77.40L567.20-77.40Q567.20-66.80 562-60.90L562-60.90L562-60.90Q556.80-55 548.10-55L548.10-55L548.10-55Q539.40-55 534-57L534-57L534-57Q528.60-59 528-59.60L528-59.60L520.80-21.80L520.80-21.80Q525.60-21.20 534.60-21.20L534.60-21.20L534.60-21.20Q550-21.20 561-30.80ZM666.80-30.80L666.80-30.80L666.80-30.80Q670.60-26 670.60-16.70L670.60-16.70L670.60-16.70Q670.60-7.40 663.50-1.70L663.50-1.70L663.50-1.70Q656.40 4 644.00 4L644.00 4L644.00 4Q636.80 4 625.60 2.40L625.60 2.40L625.60 2.40Q603.60-1 597.30-1L597.30-1L597.30-1Q591.00-1 588.40-0.70L588.40-0.70L588.40-0.70Q585.80-0.40 581.60 0L581.60 0L605.80-132L649.60-132L629.60-22L629.60-22Q632.20-21.60 634.60-21.60L634.60-21.60L639.60-21.60L639.60-21.60Q656.40-21.60 666.80-30.80Z" fill="url(#editing-gradient-gradient)"/></g></g><style>text {
  font-size: 64px;
  font-family: Arial Black;
  dominant-baseline: central;
  text-anchor: middle;
}</style></svg>